<svg xmlns="http://www.w3.org/2000/svg" width="40" height="40" fill="none" viewBox="0 0 14 14"><path stroke="#221F1F" stroke-linecap="round" stroke-linejoin="round" stroke-width=".26" d="M12.61 7h-1.57" class="ic-a-discover_svg__ic_a_discover"/><path fill="#FBDC00" stroke="#221F1F" stroke-linecap="round" stroke-linejoin="round" stroke-width=".26" d="M7 12.85a5.85 5.85 0 1 0 0-11.7 5.85 5.85 0 0 0 0 11.7Z" class="ic-a-discover_svg__ic_a_discover"/><path fill="#fff" stroke="#221F1F" stroke-linecap="round" stroke-linejoin="round" stroke-width=".26" d="M9.38 4.37 5.72 5.65a.11.11 0 0 0-.07.07L4.37 9.38a.21.21 0 0 0 .25.25l3.66-1.28a.1.1 0 0 0 .07-.07l1.28-3.66a.21.21 0 0 0-.25-.25Z" class="ic-a-discover_svg__ic_a_discover"/><path fill="#221F1F" d="M7 7.76a.76.76 0 1 0 0-1.52.76.76 0 0 0 0 1.52Z" class="ic-a-discover_svg__ic_a_discover"/><path stroke="#221F1F" stroke-linecap="round" stroke-linejoin="round" stroke-width=".26" d="M7 1.39v1.57m0 9.65v-1.57M1.39 7h1.57" class="ic-a-discover_svg__ic_a_discover"/></svg>