<svg xmlns="http://www.w3.org/2000/svg" width="40" height="40" fill="none" viewBox="0 0 14 14"><path fill="#FBDC00" d="M12.75 10.7V4.72a.97.97 0 0 0-.97-.97H2.22a.97.97 0 0 0-.97.96v5.99c0 .53.43.97.97.97h9.56a.97.97 0 0 0 .97-.97Z" class="ic-a-book_svg__ic_a_book"/><path fill="#231F20" d="M12.9 4.53v6.35a.93.93 0 0 1-.93.93H2.03a.93.93 0 0 1-.92-.93V4.53a.93.93 0 0 1 .92-.93h9.94a.93.93 0 0 1 .92.93ZM1.4 10.88a.64.64 0 0 0 .63.64h9.94a.64.64 0 0 0 .63-.63V4.52a.64.64 0 0 0-.63-.64H2.03a.64.64 0 0 0-.63.64v6.35Z" class="ic-a-book_svg__ic_a_book"/><path fill="#231F20" d="M12.75 5.85H1.25a.14.14 0 0 1-.14-.15.14.14 0 0 1 .14-.14h11.5a.14.14 0 0 1 .14.14.14.14 0 0 1-.14.15Z" class="ic-a-book_svg__ic_a_book"/><path fill="#fff" d="M5.4 2.33H3.68v2.4H5.4v-2.4Z" class="ic-a-book_svg__ic_a_book"/><path fill="#231F20" d="M3.68 2.19H5.4a.14.14 0 0 1 .14.14v2.4a.14.14 0 0 1-.14.14H3.68a.14.14 0 0 1-.14-.15V2.33a.14.14 0 0 1 .14-.14Zm1.57.29H3.83v2.1h1.42v-2.1Z" class="ic-a-book_svg__ic_a_book"/><path fill="#fff" d="M10.32 2.33H8.6v2.4h1.72v-2.4Z" class="ic-a-book_svg__ic_a_book"/><path fill="#231F20" d="M8.6 2.19h1.72a.14.14 0 0 1 .14.14v2.4a.14.14 0 0 1-.14.14H8.6a.14.14 0 0 1-.14-.15V2.33a.14.14 0 0 1 .14-.14Zm1.57.29H8.75v2.1h1.42v-2.1Z" class="ic-a-book_svg__ic_a_book"/><path fill="#fff" d="M4.07 6.67H2.4v1.68h1.67V6.68Z" class="ic-a-book_svg__ic_a_book"/><path fill="#231F20" d="M2.4 6.53h1.67a.14.14 0 0 1 .14.14v1.68a.14.14 0 0 1-.14.14H2.4a.14.14 0 0 1-.15-.14V6.67a.14.14 0 0 1 .15-.14Zm1.52.29H2.54V8.2h1.38V6.82Z" class="ic-a-book_svg__ic_a_book"/><path fill="#fff" d="M6.66 6.67H4.98v1.68h1.67V6.68Z" class="ic-a-book_svg__ic_a_book"/><path fill="#231F20" d="M4.98 6.53h1.68a.14.14 0 0 1 .14.14v1.68a.14.14 0 0 1-.14.14H4.98a.14.14 0 0 1-.14-.14V6.67a.14.14 0 0 1 .14-.14Zm1.53.29H5.13V8.2H6.5V6.82Z" class="ic-a-book_svg__ic_a_book"/><path fill="#fff" d="M9.24 6.67H7.57v1.68h1.67V6.68Z" class="ic-a-book_svg__ic_a_book"/><path fill="#231F20" d="M7.57 6.53h1.67a.14.14 0 0 1 .14.14v1.68a.14.14 0 0 1-.14.14H7.57a.14.14 0 0 1-.15-.14V6.67a.14.14 0 0 1 .15-.14Zm1.52.29H7.71V8.2H9.1V6.82Z" class="ic-a-book_svg__ic_a_book"/><path fill="#fff" d="M11.82 6.67h-1.67v1.68h1.67V6.68Z" class="ic-a-book_svg__ic_a_book"/><path fill="#231F20" d="M10.15 6.53h1.68a.14.14 0 0 1 .14.14v1.68a.14.14 0 0 1-.14.14h-1.68a.14.14 0 0 1-.14-.14V6.67a.14.14 0 0 1 .14-.14Zm1.53.29H10.3V8.2h1.38V6.82Z" class="ic-a-book_svg__ic_a_book"/><path fill="#fff" d="M4.07 9.1H2.4v1.67h1.67V9.1Z" class="ic-a-book_svg__ic_a_book"/><path fill="#231F20" d="M2.4 8.95h1.67a.14.14 0 0 1 .14.15v1.67a.14.14 0 0 1-.14.15H2.4a.14.14 0 0 1-.15-.15V9.1a.14.14 0 0 1 .15-.15Zm1.52.3H2.54v1.38h1.38V9.24Z" class="ic-a-book_svg__ic_a_book"/><path fill="#fff" d="M6.66 9.1H4.98v1.67h1.67V9.1Z" class="ic-a-book_svg__ic_a_book"/><path fill="#231F20" d="M4.98 8.95h1.68a.14.14 0 0 1 .14.15v1.67a.14.14 0 0 1-.14.15H4.98a.14.14 0 0 1-.14-.15V9.1a.14.14 0 0 1 .14-.15Zm1.53.3H5.13v1.38H6.5V9.24Z" class="ic-a-book_svg__ic_a_book"/><path fill="#fff" d="M9.24 9.1H7.57v1.67h1.67V9.1Z" class="ic-a-book_svg__ic_a_book"/><path fill="#231F20" d="M7.57 8.95h1.67a.14.14 0 0 1 .14.15v1.67a.14.14 0 0 1-.14.15H7.57a.14.14 0 0 1-.15-.15V9.1a.14.14 0 0 1 .15-.15Zm1.52.3H7.71v1.38H9.1V9.24Z" class="ic-a-book_svg__ic_a_book"/><path fill="#fff" d="M11.82 9.1h-1.67v1.67h1.67V9.1Z" class="ic-a-book_svg__ic_a_book"/><path fill="#231F20" d="M10.15 8.95h1.68a.14.14 0 0 1 .14.15v1.67a.14.14 0 0 1-.09.14.14.14 0 0 1-.05 0h-1.68a.14.14 0 0 1-.13-.08.14.14 0 0 1-.01-.06V9.1a.14.14 0 0 1 .14-.15Zm1.53.3H10.3v1.38h1.38V9.24Zm-3.95-.92a.14.14 0 0 1-.13-.1.14.14 0 0 1 .03-.15l1.5-1.5a.14.14 0 0 1 .21 0 .14.14 0 0 1 0 .2l-1.5 1.5a.14.14 0 0 1-.1.05Z" class="ic-a-book_svg__ic_a_book"/><path fill="#231F20" d="M9.15 8.4a.14.14 0 0 1-.1-.04L7.46 6.79a.14.14 0 0 1 0-.2.14.14 0 0 1 .21 0l1.59 1.58a.14.14 0 0 1-.1.25Zm-3.99 2.34a.14.14 0 0 1-.14-.1.14.14 0 0 1 .04-.15l1.5-1.5a.14.14 0 0 1 .2 0 .14.14 0 0 1 0 .21l-1.5 1.5a.14.14 0 0 1-.1.04Z" class="ic-a-book_svg__ic_a_book"/><path fill="#231F20" d="M6.35 10.61a.14.14 0 0 1-.1-.04L4.88 9.2a.14.14 0 0 1 0-.2.14.14 0 0 1 .2 0l1.37 1.36a.14.14 0 0 1-.1.25Z" class="ic-a-book_svg__ic_a_book"/></svg>