<svg xmlns="http://www.w3.org/2000/svg" width="40" height="40" fill="none" viewBox="0 0 14 14"><path fill="#FBDC00" stroke="#221F1F" stroke-linecap="round" stroke-linejoin="round" stroke-width=".37" d="M9.37 1.85a.63.63 0 0 0-.62-.65c-.34 0-.61.3-.61.65v1.3c0 .37.27.66.61.66.34 0 .62-.3.62-.65v-1.3Z" class="ic-a-plan_svg__ic_a_plan"/><g stroke="#221F1F" stroke-linecap="round" stroke-linejoin="round" stroke-width=".37"><path fill="#FBDC00" d="M9.94 2.2H4.07a.96.96 0 0 0-.94.98v8.64c0 .54.42.98.94.98h5.87c.51 0 .93-.44.93-.98V3.18a.96.96 0 0 0-.93-.98Z" class="ic-a-plan_svg__ic_a_plan"/><path fill="#FBDC00" d="M5.86 1.85a.63.63 0 0 0-.61-.65c-.34 0-.62.3-.62.65v1.3c0 .37.28.66.62.66.34 0 .61-.3.61-.65v-1.3Z" class="ic-a-plan_svg__ic_a_plan"/><path d="M6.37 5.78h2.9M6.37 8.1h2.9m-2.9 2.31h2.9" class="ic-a-plan_svg__ic_a_plan"/><path fill="#fff" d="M4.75 6.53c.39 0 .7-.34.7-.75s-.31-.74-.7-.74c-.4 0-.7.33-.7.74s.3.74.7.74Zm0 2.31c.39 0 .7-.33.7-.74s-.31-.75-.7-.75c-.4 0-.7.33-.7.75s.3.74.7.74Zm0 2.31c.39 0 .7-.33.7-.74a.73.73 0 0 0-.7-.74c-.4 0-.7.33-.7.74s.3.74.7.74Z" class="ic-a-plan_svg__ic_a_plan"/></g></svg>