<svg xmlns="http://www.w3.org/2000/svg" width="40" height="40" fill="none" viewBox="0 0 14 14"><path fill="#231F20" d="M9.54 10.06a.1.1 0 0 1-.07-.04l-.64-.63a.1.1 0 0 1 0-.15.1.1 0 0 1 .15 0l.64.63a.1.1 0 0 1 0 .15.1.1 0 0 1-.07.04Zm.94-2.4h-.92a.1.1 0 0 1 0-.22h.92a.1.1 0 0 1 0 .21ZM8.74 5.94a.1.1 0 0 1-.08-.04.1.1 0 0 1 0-.15l.5-.48a.1.1 0 0 1 .14 0 .1.1 0 0 1 0 .15l-.49.48a.1.1 0 0 1-.07.04Zm-1.7-.67a.1.1 0 0 1-.12-.1V3.8a.1.1 0 1 1 .22 0v1.36a.1.1 0 0 1-.1.11ZM5.37 6a.1.1 0 0 1-.07-.03l-.55-.54a.1.1 0 0 1 0-.15.1.1 0 0 1 .15 0l.55.54a.1.1 0 0 1 0 .15.1.1 0 0 1-.07.04Zm-.76 1.65H3.17a.1.1 0 0 1 0-.21h1.45a.1.1 0 1 1 0 .21ZM4.69 10a.1.1 0 0 1-.07-.03.1.1 0 0 1 0-.15l.55-.56a.1.1 0 0 1 .15 0 .1.1 0 0 1 0 .15l-.55.56a.1.1 0 0 1-.08.03Zm2.34 1.1a.1.1 0 0 1-.1-.1v-.92a.1.1 0 0 1 .1-.1.1.1 0 0 1 .11.1V11a.1.1 0 0 1-.1.1Z" class="ic-a-trade_finance_svg__ic_a_trade_finance"/><path fill="#FBDC00" d="M7.03 4.07a.92.92 0 1 0 0-1.84.92.92 0 0 0 0 1.84Z" class="ic-a-trade_finance_svg__ic_a_trade_finance"/><path fill="#231F20" d="M7.03 4.18a1.03 1.03 0 0 1-.72-1.75 1.03 1.03 0 0 1 1.75.72 1.03 1.03 0 0 1-1.03 1.03Zm0-1.84a.81.81 0 1 0 0 1.63.81.81 0 0 0 0-1.63Z" class="ic-a-trade_finance_svg__ic_a_trade_finance"/><path fill="#FBDC00" d="M7.03 12.9a.92.92 0 1 0 0-1.85.92.92 0 0 0 0 1.84Z" class="ic-a-trade_finance_svg__ic_a_trade_finance"/><path fill="#231F20" d="M7.03 13a1.03 1.03 0 0 1 0-2.06 1.03 1.03 0 0 1 .72 1.76 1.03 1.03 0 0 1-.72.3Zm0-1.84a.81.81 0 1 0 0 1.63.81.81 0 0 0 0-1.63Z" class="ic-a-trade_finance_svg__ic_a_trade_finance"/><path fill="#FBDC00" d="M11.54 8.46a.92.92 0 1 0 0-1.84.92.92 0 0 0 0 1.84Z" class="ic-a-trade_finance_svg__ic_a_trade_finance"/><path fill="#231F20" d="M11.54 8.57a1.03 1.03 0 0 1-.73-1.75 1.03 1.03 0 0 1 1.45 0 1.03 1.03 0 0 1 0 1.45 1.03 1.03 0 0 1-.72.3Zm0-1.84a.81.81 0 1 0 0 1.63.81.81 0 0 0 0-1.63Z" class="ic-a-trade_finance_svg__ic_a_trade_finance"/><path fill="#FBDC00" d="M2.46 8.46a.92.92 0 1 0 0-1.84.92.92 0 0 0 0 1.84Z" class="ic-a-trade_finance_svg__ic_a_trade_finance"/><path fill="#231F20" d="M2.46 8.57a1.03 1.03 0 0 1-.72-1.75 1.03 1.03 0 0 1 1.45 0 1.03 1.03 0 0 1 0 1.45 1.03 1.03 0 0 1-.73.3Zm0-1.84a.81.81 0 0 0 0 1.63.81.81 0 0 0 0-1.63Z" class="ic-a-trade_finance_svg__ic_a_trade_finance"/><path fill="#fff" d="M4.26 5.47a.69.69 0 1 0 0-1.38.69.69 0 0 0 0 1.38Z" class="ic-a-trade_finance_svg__ic_a_trade_finance"/><path fill="#231F20" d="M4.26 5.57a.8.8 0 0 1-.56-1.36.8.8 0 0 1 .87-.17.8.8 0 0 1 .43.43.8.8 0 0 1 0 .61.8.8 0 0 1-.74.5Zm0-1.38a.58.58 0 0 0-.58.59.58.58 0 1 0 .58-.59Z" class="ic-a-trade_finance_svg__ic_a_trade_finance"/><path fill="#fff" d="M10.02 11.08a.69.69 0 1 0 0-1.38.69.69 0 0 0 0 1.38Z" class="ic-a-trade_finance_svg__ic_a_trade_finance"/><path fill="#231F20" d="M10.02 11.19a.8.8 0 0 1-.74-.5.8.8 0 0 1 0-.6.8.8 0 0 1 .74-.5.8.8 0 0 1 .56.23.8.8 0 0 1-.56 1.37Zm0-1.38a.58.58 0 1 0 0 1.16.58.58 0 1 0 0-1.16Z" class="ic-a-trade_finance_svg__ic_a_trade_finance"/><path fill="#fff" d="M9.8 5.47a.69.69 0 1 0 0-1.38.69.69 0 0 0 0 1.38Z" class="ic-a-trade_finance_svg__ic_a_trade_finance"/><path fill="#231F20" d="M9.8 5.57a.8.8 0 0 1-.74-1.1.8.8 0 0 1 .44-.43.8.8 0 0 1 .6 0 .8.8 0 0 1 .44.43.8.8 0 0 1 0 .61.8.8 0 0 1-.43.43.8.8 0 0 1-.3.06Zm0-1.38a.58.58 0 0 0-.58.59.58.58 0 0 0 .58.58.58.58 0 0 0 0-1.17Z" class="ic-a-trade_finance_svg__ic_a_trade_finance"/><path fill="#fff" d="M4.22 11.05a.69.69 0 1 0 0-1.38.69.69 0 0 0 0 1.38Z" class="ic-a-trade_finance_svg__ic_a_trade_finance"/><path fill="#231F20" d="M4.22 11.16a.8.8 0 0 1-.74-.5.8.8 0 0 1 0-.6.8.8 0 0 1 1.47.6.8.8 0 0 1-.43.44.8.8 0 0 1-.3.06Zm0-1.38a.58.58 0 1 0 0 1.16.58.58 0 0 0 0-1.16Z" class="ic-a-trade_finance_svg__ic_a_trade_finance"/><path fill="#fff" d="M7.01 9.98a2.4 2.4 0 1 0 0-4.79 2.4 2.4 0 0 0 0 4.79Z" class="ic-a-trade_finance_svg__ic_a_trade_finance"/><path fill="#231F20" d="M7.01 10.08a2.5 2.5 0 0 1-2.5-2.5 2.5 2.5 0 0 1 2.5-2.5 2.5 2.5 0 0 1 2.5 2.5 2.5 2.5 0 0 1-2.5 2.5Zm0-4.78a2.29 2.29 0 0 0-2.29 2.28 2.29 2.29 0 0 0 2.3 2.29A2.29 2.29 0 0 0 9.3 7.58 2.29 2.29 0 0 0 7 5.3Z" class="ic-a-trade_finance_svg__ic_a_trade_finance"/><path fill="#FFF2EE" d="M7.96 7.16H7.6V8.4h.36V7.16Z" class="ic-a-trade_finance_svg__ic_a_trade_finance"/><path fill="#231F20" d="M8.07 8.52h-.58V7.05h.58v1.47ZM7.7 8.3h.14V7.26h-.14V8.3Z" class="ic-a-trade_finance_svg__ic_a_trade_finance"/><path fill="#FFF2EE" d="M7.17 7.16h-.36V8.4h.36V7.16Z" class="ic-a-trade_finance_svg__ic_a_trade_finance"/><path fill="#231F20" d="M7.28 8.52h-.57V7.05h.57v1.47Zm-.36-.22h.14V7.26h-.14V8.3Z" class="ic-a-trade_finance_svg__ic_a_trade_finance"/><path fill="#FFF2EE" d="M6.38 7.16h-.35V8.4h.35V7.16Z" class="ic-a-trade_finance_svg__ic_a_trade_finance"/><path fill="#231F20" d="M6.5 8.52h-.58V7.05h.57v1.47Zm-.36-.22h.14V7.26h-.14V8.3Z" class="ic-a-trade_finance_svg__ic_a_trade_finance"/><path fill="#FFF2EE" d="M6.97 5.83a.05.05 0 0 1 .05 0 90.57 90.57 0 0 1 1.53 1c-.04-.02-2.84 0-3.1 0V6.8l1.52-.98Z" class="ic-a-trade_finance_svg__ic_a_trade_finance"/><path fill="#231F20" d="m8.6 6.95-.07-.02H5.38l-.05-.16.07-.05 1.51-.98a.15.15 0 0 1 .17 0l.84.54c.37.24.56.36.66.44.1.08.09.1.07.15l-.04.08ZM7 5.94l-1.2.77a337.38 337.38 0 0 1 2.39 0l-1.2-.77Z" class="ic-a-trade_finance_svg__ic_a_trade_finance"/><path fill="#020202" d="M7 6.59a.2.2 0 1 0 0-.4.2.2 0 0 0 0 .4Z" class="ic-a-trade_finance_svg__ic_a_trade_finance"/><path fill="#FFF2EE" d="M8.28 6.82H5.71v.33h2.57v-.33Z" class="ic-a-trade_finance_svg__ic_a_trade_finance"/><path fill="#231F20" d="M8.39 7.26h-2.8v-.55h2.8v.55Zm-2.58-.21h2.37v-.12H5.8v.12Z" class="ic-a-trade_finance_svg__ic_a_trade_finance"/><path fill="#FFF2EE" d="M8.28 8.41H5.71v.4h2.57v-.4Z" class="ic-a-trade_finance_svg__ic_a_trade_finance"/><path fill="#231F20" d="M8.39 8.93h-2.8V8.3h2.8v.63ZM5.81 8.7h2.37v-.2H5.8v.2Z" class="ic-a-trade_finance_svg__ic_a_trade_finance"/></svg>