<svg xmlns="http://www.w3.org/2000/svg" width="1em" height="1em" fill="none" class="styles_whatsapp_icon__Vyo1M" viewBox="0 0 14 14"><g fill="#73D081"><path d="M1.05 6.95c0 1.04.28 2.07.8 2.97L1 13l3.17-.83a6 6 0 0 0 2.85.73c3.3 0 5.98-2.67 5.98-5.95a5.9 5.9 0 0 0-1.75-4.2A5.95 5.95 0 0 0 7.03 1a5.97 5.97 0 0 0-5.98 5.95Zm1.89 2.81-.12-.18a4.91 4.91 0 0 1-.76-2.63A4.96 4.96 0 0 1 7.03 2a4.94 4.94 0 0 1 3.5 1.45A4.9 4.9 0 0 1 12 6.95a4.96 4.96 0 0 1-4.97 4.94 4.98 4.98 0 0 1-2.52-.69l-.19-.1-1.88.49.5-1.83Z" class="ic-c-send_whatsapp_svg__ic_c_send_whatsapp"/><path d="M5.53 4.46c-.11-.25-.23-.25-.33-.26H4.9a.55.55 0 0 0-.4.18C4.38 4.54 4 4.9 4 5.63s.53 1.44.6 1.54c.08.1 1.04 1.65 2.56 2.24 1.26.5 1.52.4 1.8.38.26-.03.87-.36 1-.7.12-.36.12-.65.09-.72-.04-.06-.14-.1-.3-.17-.14-.07-.87-.43-1.01-.48-.14-.05-.24-.08-.34.07a9 9 0 0 1-.47.58c-.09.1-.17.12-.32.04-.15-.07-.63-.23-1.2-.74a4.48 4.48 0 0 1-.83-1.03c-.1-.14-.01-.22.06-.3l.23-.26c.07-.09.1-.15.14-.25.05-.1.03-.18 0-.26-.05-.07-.34-.8-.47-1.1" class="ic-c-send_whatsapp_svg__ic_c_send_whatsapp"/></g></svg>