<svg xmlns="http://www.w3.org/2000/svg" width="16" height="16" fill="currentColor" viewBox="0 0 14 14"><path fill-rule="evenodd" d="M4.62 1.02c-.7.03-1.4.18-1.82.4-1.06.52-1.65 1.5-1.77 2.9C1 4.55 1 5.44 1 7.2c0 2.75 0 2.62.14 3.23.1.46.24.79.5 1.16.45.67 1.16 1.11 2.08 1.3.5.1.55.1 3.23.1 2.75 0 2.72 0 3.38-.11 1.47-.27 2.48-1.46 2.61-3.08L13 7.23c.01-2.41 0-2.68-.09-3.33a3.12 3.12 0 0 0-2.48-2.75c-.58-.13-.5-.13-3.16-.13H4.62M9.17 2.1c1.07.06 1.52.19 1.97.57.27.23.54.67.63 1 .05.18.1.62.13 1.1.03.45.03 2.9 0 4.08a4.23 4.23 0 0 1-.25 1.77 2.03 2.03 0 0 1-1.38 1.16 6.9 6.9 0 0 1-1.95.14c-1.7 0-4.03-.03-4.26-.07-.67-.13-1.01-.3-1.36-.67-.37-.39-.53-.84-.6-1.7-.03-.37-.03-4.62 0-4.98.03-.34.1-.76.17-.94a2.13 2.13 0 0 1 .64-.94c.18-.14.55-.34.77-.4.18-.04.69-.1 1.17-.12.51-.02 3.83-.03 4.32 0m.79 1.01a.74.74 0 0 0-.44.46.95.95 0 0 0 .05.54.78.78 0 0 0 .32.33c.1.04.14.05.32.05.19 0 .22 0 .33-.07a.72.72 0 0 0-.08-1.3.97.97 0 0 0-.5 0m-3.5.84a3.07 3.07 0 0 0-2.4 2.07 2.8 2.8 0 0 0-.14.96A3 3 0 0 0 4.5 8.8a3.08 3.08 0 0 0 3.38 1.15 3.15 3.15 0 0 0 1.58-1.1c.19-.25.41-.7.5-.98A3.09 3.09 0 0 0 7.5 3.96a4.05 4.05 0 0 0-1.03 0m.88 1.07a2 2 0 0 1 1.6 1.54c.06.26.05.66-.01.9a2 2 0 0 1-.6 1c-.16.15-.25.21-.44.3-.34.17-.54.22-.91.22a1.73 1.73 0 0 1-.89-.2c-.4-.2-.7-.51-.9-.91a1.68 1.68 0 0 1-.2-.79 1.86 1.86 0 0 1 .14-.84 2.04 2.04 0 0 1 1.53-1.23c.18-.03.5-.03.68 0" class="ic-m-instagram_logo_svg__ic_m_instagram_logo"/></svg>