<svg xmlns="http://www.w3.org/2000/svg" width="16" height="16" fill="currentColor" viewBox="0 0 14 14"><path fill-rule="evenodd" d="M2.16 1.04c-.5.11-.92.5-1.1 1a1.67 1.67 0 0 0 0 .86c.15.47.5.82 1 .99.1.03.2.04.41.04.36 0 .55-.05.8-.22a1.45 1.45 0 0 0 .67-1.23c0-.26-.03-.4-.15-.66a1.47 1.47 0 0 0-1.63-.78M9.6 4.79c-.75.14-1.41.54-1.81 1.12l-.12.16V5H6.49l-1.18.02v4L5.3 13h2.38v-2.24c0-2.38 0-2.46.11-2.79a1.36 1.36 0 0 1 1.3-.96c.7-.04 1.16.3 1.37 1.04l.05.2v2.37l.01 2.38H13v-2.61c0-1.62-.01-2.71-.03-2.89-.13-1.47-.88-2.4-2.16-2.67-.3-.06-.94-.08-1.2-.04M1.24 9v4H3.7V5H1.24v4" class="ic-m-linkedin_logo_svg__ic_m_linkedin_logo"/></svg>