<svg xmlns="http://www.w3.org/2000/svg" width="1em" height="1em" fill="none" class="styles_whatsapp_icon__fcR5q" viewBox="0 0 14 14"><path fill="#BFC8D0" fill-rule="evenodd" d="M6.8 13a5.8 5.8 0 1 0-5.05-2.94L1 13l3.03-.7a5.77 5.77 0 0 0 2.76.7Zm0-.9a4.9 4.9 0 1 0-4.02-2.08l-.44 1.64L4 11.24a4.88 4.88 0 0 0 2.78.87Z" class="ic-c-whatsapp_svg__ic_c_whatsapp" clip-rule="evenodd"/><path fill="url(#a)" d="M11.76 6.8a4.97 4.97 0 0 1-7.78 4.08l-1.7.43.44-1.67a4.97 4.97 0 1 1 9.04-2.85Z" class="ic-c-whatsapp_svg__ic_c_whatsapp"/><path fill="#fff" fill-rule="evenodd" d="M6.8 12.59a5.8 5.8 0 1 0-5.05-2.94L1 12.59l3.03-.7a5.77 5.77 0 0 0 2.76.7Zm0-.9A4.9 4.9 0 1 0 2.77 9.6l-.44 1.65L4 10.83a4.88 4.88 0 0 0 2.78.86Z" class="ic-c-whatsapp_svg__ic_c_whatsapp" clip-rule="evenodd"/><path fill="#fff" d="M5.34 4.1c-.13-.27-.35-.25-.56-.25-.38 0-.97.46-.97 1.3 0 .7.3 1.47 1.34 2.6 1 1.11 2.3 1.68 3.4 1.66a1.29 1.29 0 0 0 1.31-1.27c0-.14-.08-.21-.14-.23-.38-.18-1.06-.51-1.22-.57-.15-.07-.23.02-.28.06-.15.14-.43.54-.52.62-.1.1-.24.05-.3.02a4.19 4.19 0 0 1-1.29-.81c-.58-.57-.62-.77-.73-.94-.08-.14-.02-.23.01-.26.13-.15.3-.37.38-.49.08-.1.02-.28-.02-.38-.16-.46-.3-.84-.4-1.06Z" class="ic-c-whatsapp_svg__ic_c_whatsapp"/><defs><linearGradient id="a" x1="11.14" x2="1.83" y1="3.07" y2="11.76" gradientUnits="userSpaceOnUse"><stop stop-color="#5BD066"/><stop offset="1" stop-color="#27B43E"/></linearGradient></defs></svg>