<svg xmlns="http://www.w3.org/2000/svg" height="800" width="1200" viewBox="-45 -24.616975 390 147.70185"><g fill-rule="evenodd"><path d="M24.4338 16.0654l4.5345 15.2925h14.6352L31.758 40.8107l4.534 15.3036-11.858-9.4603-11.8293 9.4603 4.5176-15.3036L5.2645 31.358h14.6552l4.5141-15.2925M300 98.4679v-2.7816H0v2.7816h300m-9.8203-25.6623h3.275l-1.0272 6.5168h3.2499l1.0477-6.5168h3.2498l-2.5742 16.4806h-3.2708l1.0448-6.8666h-3.2658l-1.0273 6.8666h-3.2658zm-12.1755 16.4806a7.7443 7.7443 0 01-.8381.1618 6.6616 6.6616 0 01-.8615.0547c-1.422 0-2.7058-.5309-3.847-1.5923-1.1435-1.0593-1.7479-2.8847-1.8192-5.471 0-.2614.0096-.5241.0284-.7969.0251-.2667.062-.5378.1237-.8154.3612-2.0055 1.2888-3.8424 2.7862-5.514 1.4966-1.67 3.2879-2.5075 5.3676-2.5075.2615 0 .5304.0144.801.0456.2729.0258.5555.0764.8319.151l-.5088 2.9012c-.1857-.0319-.3738-.058-.5362-.0883a3.1461 3.1461 0 00-.5339-.0444c-1.3018 0-2.3996.547-3.3027 1.6363-.9087 1.0882-1.4347 2.2892-1.596 3.5962-.0128.0724-.021.1391-.0295.2053-.0097.0659-.0097.1373-.0097.2068-.0112.132-.0233.259-.0233.3817v.3612c0 1.5241.2736 2.6049.8363 3.2372.5602.6291 1.1646.9897 1.8239 1.077.066 0 .142.0032.2153.0112.0757.0064.147.0145.2194.0145.2615.0112.511-.0113.7457-.0666.241-.0593.4615-.1328.6444-.2183l-.5183 3.0732zm-21.968-16.4806h6.6855l-.4978 3.0977h-3.2688l-.5059 3.4191h2.9058l-.5055 3.0972h-2.9143l-.5264 3.5946h3.095l-.522 3.272h-6.5185zm-15.6059 3.0977h-2.5638l.5099-3.0977h8.4175l-.5214 3.0977h-2.4003l-2.2477 13.3829h-3.4186l2.2245-13.3829zm-20.421 6.8638v.6667c0 .224.0096.4518.0297.6836.033.6564.1566 1.2546.3606 1.7987.2074.5481.5971.8199 1.1524.8199.9488 0 1.7071-.7463 2.2791-2.2345.5715-1.4906.9031-3.2686.9904-5.3318 0-1.2028-.1065-2.0482-.3237-2.528-.2188-.4769-.6303-.7185-1.2222-.7185-.8416 0-1.4972.4838-1.973 1.449-.4673.964-.8124 2.034-1.0313 3.1956-.062.3779-.111.7521-.1497 1.1338-.0497.3773-.0826.7379-.1124 1.09v-.0244zm-3.4226.8502c0-2.7321.6176-5.2144 1.849-7.4457 1.2175-2.2254 2.9558-3.3455 5.1914-3.3455 1.4643 0 2.6037.5618 3.4077 1.6803.813 1.1171 1.2182 2.553 1.236 4.2965v.2607c-.0182.06-.0252.106-.0252.1501v.1333c-.1698 2.9176-.8866 5.3642-2.1434 7.3327-1.2586 1.9684-2.9952 2.953-5.2178 2.953-1.4586 0-2.54-.5475-3.2425-1.6471-.699-1.095-1.0552-2.5456-1.0552-4.3473v-.021zm-14.6022-10.8117h6.6884l-.5007 3.0977h-3.2664l-.502 3.4191h2.8977l-.4963 3.0972h-2.9233l-1.1983 6.8666h-3.2726zm-20.422 0h3.2657l2.5741 10.309v-1.896l1.2018-8.413h3.2664l-2.5736 16.4806h-3.0933l-2.394-10.292V80.52l-1.3727 8.7662h-3.449zm-13.379 0h3.2704l-2.3998 16.4806h-3.2664zm-27.7247 7.3373c.0332.0129.049.0204.0792.0204h.0787c.0283.0129.0496.0217.074.0217h.0786c.742 0 1.3481-.241 1.8397-.73.485-.4898.7841-1.0186.9043-1.6037.0129-.0878.0251-.1705.0291-.2497.008-.0808.008-.1612.008-.2494 0-.4677-.1434-.8643-.4431-1.2011-.2981-.3327-.7748-.5001-1.4295-.5001-.0826 0-.1664.0016-.262.0112-.0827.0033-.178.0177-.277.0332l-.6798 4.4474zm-2.2419-7.2153h3.4443c1.9444.016 3.2993.404 4.0661 1.176.759.772 1.1437 1.6494 1.1437 2.6366 0 .1158-.008.2326-.0145.3373a4.6595 4.6595 0 01-.037.3379c-.1326.9328-.4683 1.812-1.0186 2.6375-.5561.8289-1.1533 1.3878-1.7913 1.6825-.0866.0386-.1704.0733-.2484.095-.0786.0245-.1568.0404-.224.053l1.7166 7.5241h-3.4167l-1.7276-7.3914-1.2025 7.3914h-3.262l2.5707-16.48zm-15.4396 7.389l.1487-3.4435-2.217 7.212h2.217zm-.8705-7.389h3.6263l1.3636 16.48h-3.6135l-.1783-2.7478h-3.2499l-.8705 2.7478h-3.4191zm-17.1508 3.0909h-2.5741l.518-3.091h8.414l-.522 3.091h-2.4009l-2.2413 13.389h-3.4247zm-20.2517 9.6144c.228.2167.4683.3915.7133.5242.2519.1281.5007.2325.7417.3071.1329.0264.2645.049.3972.0627.1328.0161.249.02.3698.02.5801 0 1.0848-.1618 1.5167-.4895.4352-.3242.6671-.8037.7292-1.4254v-.1111c0-.274-.078-.5315-.2325-.7726-.1492-.2398-.3475-.4718-.596-.6824-.1748-.1618-.3656-.3202-.5559-.4708-.1954-.1556-.4018-.3173-.6012-.4934-.4928-.4209-.9447-.9206-1.3553-1.5024-.4183-.5805-.6297-1.32-.6297-2.2226v-.229c0-.081.008-.1606.0246-.2295.1288-1.6422.7167-2.9138 1.7412-3.8145 1.0317-.903 2.1838-1.3583 3.4646-1.371.4683 0 .9241.0604 1.3766.1847.4472.1214.8866.306 1.3099.5544l-.506 3.227c-.2154-.2774-.485-.5054-.7959-.6899-.3111-.1807-.6347-.3003-.9658-.3577-.0746-.0129-.1407-.0275-.2068-.0338-.062-.0032-.1373-.0113-.212-.0113-.4479 0-.841.1354-1.1805.4028-.3447.2712-.535.6814-.585 1.2323v.1743c0 .5692.1572 1.0366.4602 1.4062.3065.372.6502.7145 1.0484 1.036.0706.0575.1413.1109.2034.1611.0656.054.1282.1013.1897.1447.461.3767.8963.8084 1.286 1.2979.4102.485.6044 1.1583.6044 2.0147v.3032c0 .0316 0 .0575-.0129.0773 0 .0204-.0032.0468-.0032.0751-.1334 1.7897-.7264 3.1753-1.7794 4.1518-1.0518.9834-2.2037 1.5185-3.4567 1.6051a.7843.7843 0 01-.1652.0204h-.1624c-.4758 0-.94-.0638-1.4044-.195a4.314 4.314 0 01-1.2723-.609l.5015-3.2722zM57.8286 72.8056h6.6893l-.5059 3.0977h-3.2623l-.509 3.4191h2.9014l-.498 3.0972h-2.9217L59.2 86.0142h3.0965l-.5224 3.272h-6.5156zm-16.8533 0l-1.894 12.535v.1311c-.017.391.1205.6854.4103.882.2947.1931.6183.2922.9788.2922h.1362c.3771-.0128.7208-.128 1.0364-.3475.3111-.2175.4888-.531.5344-.9367l2.0683-12.5561h3.0748l-1.8813 12.187c-.2575 1.9017-.9162 3.1548-1.969 3.7467-1.0524.5971-2.2288.8934-3.5222.8934-1.2438 0-2.2512-.2673-3.0174-.8046-.759-.5407-1.1446-1.4413-1.1446-2.704 0-.116 0-.237.0112-.3708.0097-.1301.017-.2627.0383-.3916l1.8655-12.5561h3.2738zm-19.6177 0h3.4453l-2.251 13.5595h3.4493l-.5232 2.921h-6.694zM4.8536 79.67a.1316.1316 0 00.0787.0262h.0497c.568.0112 1.0323-.2067 1.393-.6547.368-.4512.5846-.9372.6796-1.4596 0-.0717.0048-.1373.008-.1988.0081-.057.0081-.1158.0081-.1754 0-.4776-.1368-.9037-.4108-1.2615-.2816-.3618-.7134-.5453-1.3053-.5453L4.8531 79.67zm-1.0488 7.0432c.029.0113.058.0227.0747.0227h.054c.63.0145 1.148-.2137 1.5708-.687.4228-.4717.6962-.9943.8124-1.5583.008-.074.021-.1488.029-.2267a4.357 4.357 0 00.0081-.2541c0-.4924-.1407-.9322-.4387-1.3049-.2826-.3816-.7596-.5845-1.4136-.6096l-.6967 4.6179zM2.6071 72.8056h3.6145c1.5127.0144 2.5862.4062 3.2163 1.18.6346.7686.9578 1.6317.9697 2.5929v.1847c0 .067-.0049.1259-.0251.1845-.053.886-.3264 1.7179-.8084 2.4943-.4882.7783-1.0938 1.2627-1.8068 1.4524.4975.0684.8997.4137 1.2233 1.0323.3186.6183.4804 1.3338.4804 2.149 0 .1575 0 .3193-.0206.4783-.017.1612-.0336.3258-.0667.5006-.1868 1.0605-.7373 2.03-1.6408 2.9139-.9083.8785-2.3257 1.3177-4.2653 1.3177H.041l2.566-16.4806" fill="#00458f"/><path d="M0 .0227v66.878h49.0795V.0227zm2.3127 11.3177h44.2501v51.8443H2.3127V11.3404" fill="#00458f"/><path d="M2.3127 11.3404h44.2501v51.8443H2.3127V11.3404" fill="#fff"/><path d="M299.963 0H55.2828l.0457 66.8939H300L299.963 0zM88.517 44.501H77.563V22.018h11.9682c2.3165 0 4.0714.5106 5.318 1.5178 1.2176 1.0194 1.8853 2.3337 1.9987 3.9188.0815 1.1036-.1385 2.1098-.6352 3.0077-.4764.8962-1.2502 1.5424-2.3126 1.9235 1.3394.4667 2.3126 1.2176 2.9763 2.3138.6394 1.0979.878 2.2106.7776 3.3832-.4518 4.2748-3.4924 6.4182-9.137 6.4182zm-6.0638-18.57v4.8732l6.208-.0007c1.0648 0 1.887-.2192 2.4796-.6705.609-.4456.8836-1.0421.837-1.748 0-.8324-.2622-1.4426-.763-1.8448-.51-.403-1.4683-.6092-2.8556-.6092zm0 14.7059l6.483-.001c2.3167.001 3.5338-1.0205 3.654-3.0518.0183-.7332-.1544-1.3183-.5043-1.7645-.3703-.4523-.8358-.7612-1.4016-.9264-.563-.1863-1.1314-.2774-1.695-.2774h-6.5361zm19.5697 3.864V22.018h5.1203l.0007 18.375h12.0725v4.108zm20.5379-7.4398l.0006-15.043h5.1859v14.606c0 1.5942.4386 2.749 1.3024 3.4687.8721.6996 1.8932 1.0455 3.0658 1.0455 3.2425 0 4.8788-1.4431 4.8788-4.3483V22.018h5.2017v14.773c0 5.5535-3.3033 8.3282-9.9187 8.3282-2.716-.0517-5.0017-.7123-6.8815-1.9703-1.8893-1.2721-2.835-3.3062-2.835-6.0878zm24.6109 7.4399l-.0006-22.483h17.9038l-.0016 3.9707h-12.9298v4.7819l11.8758.0006v3.9357h-11.8758v5.8194l13.473-.0004-.0017 3.975h-18.4417zm44.2594-6.9169h4.9157c.0182 1.236.4696 2.1424 1.3955 2.7354.919.595 2.0538.8775 3.3979.8775 3.516.0006 5.3079-.9117 5.3569-2.736.0627-.9064-.2543-1.5182-.9453-1.875-.673-.355-1.8313-.714-3.4686-1.0745-.9446-.2428-1.72-.4052-2.3148-.4947-2.6005-.4773-4.602-1.1885-5.9911-2.1599-1.39-.9702-2.0317-2.513-1.9462-4.6104.0757-2.1354.8803-3.7984 2.4648-5.0086 1.5553-1.209 3.8189-1.8033 6.715-1.8044 3.382.001 5.8142.7287 7.2855 2.1867 1.483 1.4528 2.2743 3.141 2.3547 5.0628h-4.8667c-.2376-2.3194-1.9328-3.4334-5.0886-3.3393-2.6705.09-4.0618.9292-4.195 2.5605-.0006 1.156.6534 1.9376 1.9406 2.3034.956.2199 2.035.4609 3.2412.74 1.2239.286 2.0808.4792 2.577.6109 1.789.4102 3.1605.8273 4.1462 1.291.9736.4245 1.7303 1.0375 2.2378 1.817.4957.7845.7624 1.8095.7624 3.1148.0224 2.0108-.5646 3.5679-1.7549 4.6498-1.1696 1.0786-2.4664 1.8084-3.9124 2.1507-1.408.359-2.6278.5344-3.6555.5344-6.9168-.0575-10.4742-2.577-10.6521-7.532zm29.0766 6.9169V25.9887h-7.3104V22.018h19.7618v3.9707h-7.3401V44.501h-5.1113zm11.0612 0l8.6186-22.483h5.902l8.588 22.483h-5.5477l-1.5372-4.6452-8.956.0006-1.7207 4.6446h-5.347zm11.4742-17.4247l-3.0915 8.9457h6.2013l-3.0483-8.9457h-.0616zm14.8921 17.4247V22.018h12.3522c2.4425 0 4.321.6296 5.6116 1.8699 1.283 1.2363 1.9434 2.7189 1.9963 4.42 0 1.2627-.323 2.3937-.9413 3.3611-.6425.9692-1.582 1.666-2.8183 2.0842 1.2618.363 2.0863.9537 2.4692 1.7496.3925.8046.577 1.8735.577 3.2334v.9367c0 .4394-.0144.7953-.0575 1.041.0428 1.0192.1373 1.7657.282 2.259.1471.478.436.788.8934.8893l.0006.6388h-5.6132c-.1795-.5885-.303-1.1053-.3829-1.5521-.058-.4615-.107-.8888-.1214-1.3258-.0387-.426-.0575-.9093-.0575-1.4717-.0113-.568-.0423-.9965-.0462-1.2807-.0386-1.1332-.2842-1.9285-.7099-2.422-.437-.4916-1.4494-.7447-3.0555-.7447h-5.4126v8.797h-4.966zm4.966-12.5755l6.3322.0016c2.3953-.0016 3.5894-1.041 3.5894-3.1074 0-.8546-.265-1.5332-.7821-2.079-.5136-.5361-1.4096-.8109-2.6871-.8109l-6.453.0012.0006 5.9939M24.4338 16.0654l4.5345 15.2925h14.6352L31.758 40.8107l4.534 15.3036-11.858-9.4596-11.8293 9.4596 4.5176-15.3036L5.2645 31.358h14.6552l4.5141-15.2925" fill="#00458f"/></g></svg>