<svg xmlns="http://www.w3.org/2000/svg" width="22" height="22" fill="none" style="margin-right:5px" viewBox="0 0 27 27"><path fill="#fff" d="M13.37 26.48a12.58 12.58 0 1 0 0-25.15 12.58 12.58 0 0 0 0 25.16Z"/><path fill="#231F20" d="M13.37.84a13 13 0 0 1 7.3 2.24 13.1 13.1 0 0 1 4.73 5.74 13.05 13.05 0 0 1-1.2 12.4 13.1 13.1 0 0 1-5.75 4.72 13.05 13.05 0 0 1-12.39-1.2A13.1 13.1 0 0 1 1.33 19 13.05 13.05 0 0 1 2.53 6.6a13.1 13.1 0 0 1 5.75-4.73A12.98 12.98 0 0 1 13.37.84Zm0 25.16a12.03 12.03 0 0 0 6.76-2.07 12.12 12.12 0 0 0 4.37-5.32 12.07 12.07 0 0 0-1.1-11.46 12.12 12.12 0 0 0-5.33-4.38A12.07 12.07 0 0 0 6.61 3.9 12.12 12.12 0 0 0 2.23 9.2a12.07 12.07 0 0 0 1.12 11.47 12.12 12.12 0 0 0 5.31 4.37 12.01 12.01 0 0 0 4.7.96Z"/><path fill="#fff" d="M21.74 15.46c-2.38 7.4-12.71 6.92-15.1.97l15.1-.97Z"/><path fill="#231F20" d="M14.02 21.44a9.57 9.57 0 0 1-2.18-.25 9 9 0 0 1-2.34-.9 7.36 7.36 0 0 1-3.32-3.68.49.49 0 1 1 .91-.36 6.4 6.4 0 0 0 2.88 3.19 8 8 0 0 0 2.09.8 8.6 8.6 0 0 0 2.27.22 7.83 7.83 0 0 0 4.17-1.34 6.96 6.96 0 0 0 1.64-1.57 7.63 7.63 0 0 0 1.13-2.24.49.49 0 1 1 .93.3 8.6 8.6 0 0 1-1.28 2.52 7.92 7.92 0 0 1-1.87 1.8 8.8 8.8 0 0 1-4.69 1.5l-.34.01Zm4.69-10.3c-.5 0-.89-.56-.89-1.3 0-.72.4-1.3.9-1.3.49 0 .88.58.88 1.3 0 .74-.4 1.3-.89 1.3Z"/><path fill="#231F20" d="M18.71 10.87c.34 0 .61-.46.61-1.02s-.27-1.02-.61-1.02c-.34 0-.61.46-.61 1.02s.27 1.02.61 1.02Zm-10.3.48c.5 0 .9-.58.9-1.3 0-.71-.4-1.3-.9-1.3-.48 0-.88.59-.88 1.3 0 .72.4 1.3.89 1.3Z"/><path fill="#231F20" d="M7.8 10.05c0 .57.28 1.02.62 1.02.33 0 .6-.45.6-1.02s-.26-1.02-.6-1.02c-.34 0-.62.46-.62 1.02Z"/><path fill="#fff" d="M14.38 8.83c1.31 1.8 1.88 3.25.9 4.48-1 1.23-3.66.03-3.66.03"/><path fill="#231F20" d="M13.85 14.35a4.81 4.81 0 0 1-.87-.08 7.61 7.61 0 0 1-1.56-.48.49.49 0 1 1 .4-.9c.43.2.89.33 1.36.42 1.05.19 1.51-.06 1.71-.3a1.72 1.72 0 0 0 .32-1.6 6.89 6.89 0 0 0-1.23-2.29.49.49 0 0 1 .79-.58 7.77 7.77 0 0 1 1.4 2.63 2.7 2.7 0 0 1-.51 2.45 2 2 0 0 1-1.3.7l-.5.03Z"/></svg>