<svg xmlns="http://www.w3.org/2000/svg" width="120" height="36" fill="none" aria-label="cogoport" viewBox="0 0 862 282"><path fill="#EC3926" d="M684.63 147.04h-19.81V96.48a50.18 50.18 0 0 1 78.12-41.61l-11.1 16.45a30.3 30.3 0 0 0-16.98-5.17 30.37 30.37 0 0 0-30.32 30.32v50.57h.09Zm-617.96-.52c-27.65 0-50.13-22.48-50.13-50.13s22.48-50.13 50.13-50.13c18.26 0 35.06 9.9 43.84 25.92l-17.3 9.56a30.37 30.37 0 0 0-26.54-15.67 30.37 30.37 0 0 0-30.32 30.32 30.37 30.37 0 0 0 30.32 30.32c10.77 0 20.5-5.51 26.01-14.82l17.06 10.17a50.47 50.47 0 0 1-43.07 24.46Zm98.54 0c-27.65 0-50.13-22.48-50.13-50.13s22.48-50.13 50.13-50.13a50.18 50.18 0 0 1 50.14 50.13 50.18 50.18 0 0 1-50.14 50.13Zm0-80.45a30.37 30.37 0 0 0-30.32 30.32 30.37 30.37 0 0 0 30.32 30.32 30.37 30.37 0 0 0 30.32-30.32 30.36 30.36 0 0 0-30.32-30.32Zm218.97 80.45c-27.65 0-50.13-22.48-50.13-50.13s22.48-50.13 50.13-50.13a50.18 50.18 0 0 1 50.13 50.13 50.18 50.18 0 0 1-50.13 50.13Zm0-80.45a30.37 30.37 0 0 0-30.32 30.32 30.37 30.37 0 0 0 30.32 30.32 30.37 30.37 0 0 0 30.32-30.32 30.36 30.36 0 0 0-30.32-30.32Zm218.27 80.45c-27.65 0-50.13-22.48-50.13-50.13s22.48-50.13 50.13-50.13a50.18 50.18 0 0 1 50.13 50.13c-.08 27.65-22.56 50.13-50.13 50.13Zm0-80.45a30.37 30.37 0 0 0-30.32 30.32 30.37 30.37 0 0 0 30.32 30.32 30.37 30.37 0 0 0 30.32-30.32 30.36 30.36 0 0 0-30.32-30.32Zm-109.3-19.81A50.18 50.18 0 0 0 443 96.39v73.82h19.81v-33.94a49.7 49.7 0 0 0 30.32 10.25c27.65 0 50.14-22.48 50.14-50.13s-22.49-50.13-50.14-50.13Zm0 80.45a30.37 30.37 0 0 1-30.33-30.32 30.36 30.36 0 0 1 30.32-30.32c16.71 0 30.32 13.6 30.32 30.32s-13.6 30.32-30.32 30.32Zm317.93-72.96H772.4V29.29h-19.8v117.75h19.8V73.56h38.68V53.75ZM328.7 47.81c-4.22-4.22-10.85-2.33-14.55 1.37-1.98 1.99-3.96 5.95-5.69 10a50.52 50.52 0 0 0-36.18-13.01c-27.65 1.3-49.1 24.9-47.8 52.63 1.29 27.65 24.9 49.1 52.63 47.8 27.65-1.28 49.1-24.89 47.8-52.62a49.99 49.99 0 0 0-8.44-25.59c4.4-1.8 8.7-3.87 10.86-6.03 3.61-3.7 5.6-10.33 1.37-14.55Zm-52.54 78.9a30.42 30.42 0 0 1-31.79-28.94 30.41 30.41 0 0 1 28.95-31.79 30.41 30.41 0 0 1 31.78 28.94 30.47 30.47 0 0 1-28.94 31.79Zm44.45 22.48c-1.98-2.41-5.08-1.12-7.15.52a94.5 94.5 0 0 1-8.44 6.03c-5.86 3.62-12.32 6.46-19.21 7.66a73.98 73.98 0 0 1-22.23 0 53.25 53.25 0 0 1-19.2-7.66 94.5 94.5 0 0 1-8.45-6.03c-2.06-1.64-5.17-2.84-7.15-.52-3.79 4.57-1.37 11.72 1.38 16.11 3.62 5.68 9.9 9.47 15.76 12.49.1.09.26.09.35.17 8.7 4.4 17.57 6.03 28.43 6.03 10.85 0 19.72-1.63 28.42-6.03.09-.08.26-.08.35-.17 5.85-3.01 12.14-6.8 15.76-12.49 2.84-4.4 5.17-11.54 1.38-16.1ZM821.16 20.07s4.82-.09 7.23 0a5.39 5.39 0 0 1 5.17 5.6c-.08 2.24-1.3 3.96-3.53 4.91 1.03 2.41 3.19 7.32 3.19 7.32h-3.45l-2.84-6.89h-2.58v6.98h-3.1V20.07h-.1Zm3.1 7.84h4.13a2.4 2.4 0 0 0 2.16-2.24 2.48 2.48 0 0 0-2.41-2.5h-3.8l-.08 4.74Z"/><path fill="#EC3926" d="M842.09 29.2a15.4 15.4 0 0 1-15.42 15.42 15.4 15.4 0 0 1-15.42-15.42 15.4 15.4 0 0 1 15.42-15.42c8.53 0 15.42 6.8 15.42 15.42Zm-15.42-12.23a12.22 12.22 0 0 0-12.23 12.23 12.1 12.1 0 0 0 12.23 12.15c6.72 0 12.23-5.43 12.23-12.23s-5.51-12.15-12.23-12.15Z"/><path fill="#000" d="M69.08 235.24v20.6c-4.05 3.18-11.97 6.02-18.69 6.02-12.92 0-23.34-8.36-23.34-22.48 0-14.21 10.33-22.66 23.34-22.66 7.06 0 12.66 2.42 17.06 5.95l-4.22 6.89a19.06 19.06 0 0 0-12.67-4.48c-8 0-14.21 5.17-14.21 14.21 0 8.96 6.2 14.13 14.56 14.13 3.44 0 6.72-.86 9.13-2.33V243H48.5v-7.83h20.58v.08Zm17.83-19.9v35.15c0 2.33.87 3.7 2.76 3.7 1.3 0 2.41-.43 3.62-1.03l.43 7.15c-1.55.6-4.48 1.47-7.58 1.47-5 0-8.27-2.42-8.27-9.14v-37.3h9.04Zm29.3 11.2c10.59 0 18.17 7.58 18.17 17.84 0 10.16-7.58 17.65-18.18 17.65-10.42 0-18.09-7.58-18.09-17.65 0-10.26 7.58-17.84 18.1-17.84Zm0 27.22c5.68 0 9.47-4.13 9.47-9.38 0-5.43-3.8-9.65-9.48-9.65-5.51 0-9.39 4.22-9.39 9.65 0 5.34 3.8 9.38 9.4 9.38Zm45.56 8.01c-4.57 0-7.84-1.37-10.17-3.7v3.02h-9.04v-45.74h9.04v14.9c2.33-2.07 5.78-3.45 10.17-3.45 9.47 0 15.85 7.24 15.85 17.4 0 10.25-6.38 17.57-15.85 17.57Zm-2.59-27.04c-3.01 0-5.85 1.37-7.58 3.18v12.92a11.37 11.37 0 0 0 7.58 3.1c5.52 0 9.13-3.87 9.13-9.64.1-5.77-3.53-9.56-9.13-9.56Zm59.53 16.02c0 1.9.51 3.44 2.32 3.44a7 7 0 0 0 3.45-1.03l.34 7.15a18.62 18.62 0 0 1-7.32 1.47c-3.8 0-6.2-1.56-7.15-4.91a14.09 14.09 0 0 1-10.68 4.82c-9.39 0-15.76-7.24-15.76-17.32 0-10.25 6.37-17.57 15.76-17.57 4.4 0 7.84 1.2 10.08 3.45v-2.85h9.04v23.35h-.09Zm-8.96-13c-1.55-1.65-4.48-3.02-7.58-3.02-5.6 0-9.13 3.87-9.13 9.65 0 5.68 3.61 9.56 9.13 9.56a11.8 11.8 0 0 0 7.58-3.02v-13.18Zm30.92-22.4v35.14c0 2.33.86 3.7 2.76 3.7 1.29 0 2.4-.43 3.61-1.03l.44 7.15c-1.55.6-4.48 1.47-7.58 1.47-5 0-8.27-2.42-8.27-9.14v-37.3h9.04Zm49.7 11.02v34.8h-9.04v-34.8h-14.47v-9.04h37.38v9.04h-13.87Zm21.1 11.54c0-1.98-.42-3.44-2.32-3.44-1.38 0-2.93.6-3.45.95l-.34-7.07c.43-.43 3.8-1.46 7.32-1.46 3.88 0 6.38 1.55 7.32 5.08 1.64-3.19 4.05-5.08 8.45-5.08 3.18 0 5.6 1.12 6.02 1.9l-1.29 8.1c-.51-.7-3.1-1.73-6.2-1.73-4.3 0-6.03 3.7-6.55 7.66v18.35h-9.04v-23.26h.09Zm62.03 12.84c0 1.9.51 3.44 2.32 3.44a7 7 0 0 0 3.45-1.03l.34 7.15a18.62 18.62 0 0 1-7.32 1.47c-3.79 0-6.2-1.56-7.15-4.91a14.09 14.09 0 0 1-10.68 4.82c-9.39 0-15.76-7.24-15.76-17.32 0-10.25 6.37-17.57 15.76-17.57 4.4 0 7.84 1.2 10.08 3.45v-2.85h9.04v23.35h-.08Zm-9.05-13c-1.55-1.65-4.48-3.02-7.58-3.02-5.6 0-9.13 3.87-9.13 9.65 0 5.68 3.62 9.56 9.13 9.56 2.93 0 5.77-1.38 7.58-3.02v-13.18Zm54.96-22.4v35.4c0 1.98.43 3.44 2.32 3.44a7.9 7.9 0 0 0 3.36-1.03l.43 7.15a19.1 19.1 0 0 1-7.4 1.47c-3.54 0-6.03-1.3-7.07-4.31-2.15 2.67-5.77 4.3-10.77 4.3-9.38 0-15.76-7.32-15.76-17.57 0-10.16 6.46-17.4 15.77-17.4 4.3 0 7.75 1.38 10.16 3.45v-14.9h8.96Zm-16.54 38.59c3.01 0 6.03-1.47 7.58-3.02v-13.1a11.1 11.1 0 0 0-7.58-3.1c-5.51 0-9.22 3.8-9.22 9.57 0 5.77 3.62 9.65 9.22 9.65Zm60.04 3.53c-3.45 2.84-8.44 4.56-14.22 4.56-12.66 0-18.34-7.75-18.34-17.65 0-10.08 6.97-17.84 17.83-17.84 10.25 0 15.07 6.3 15.07 14.05 0 2.06-.34 5.25-.69 6.54h-22.91c.86 4.74 3.88 7.32 9.39 7.32 4.22 0 8.18-1.72 10.5-3.44l3.37 6.46Zm-8.27-18.44c0-2.67-2.07-5-6.63-5-4.83 0-7.41 2.94-8.1 6.21h14.64c.09-.34.09-.86.09-1.2Zm34.37-21.7h20.93c8.61 0 15.93 5 15.93 16.02 0 9.9-7.32 15.76-15.93 15.76h-11.89v12.15h-9.04v-43.93Zm9.04 7.84v16.02h10.51c4.48 0 8.01-3.02 8.01-7.93 0-5.25-3.53-8.1-8-8.1h-10.52Zm43.93-9.82v35.14c0 2.33.86 3.7 2.76 3.7 1.3 0 2.41-.43 3.62-1.03l.43 7.15c-1.55.6-4.48 1.47-7.58 1.47-5 0-8.27-2.42-8.27-9.14v-37.3h9.04Zm46.26 35.4c0 1.9.52 3.44 2.33 3.44a7 7 0 0 0 3.44-1.03l.35 7.15a18.62 18.62 0 0 1-7.33 1.47c-3.79 0-6.2-1.56-7.15-4.91a14.09 14.09 0 0 1-10.68 4.82c-9.39 0-15.76-7.24-15.76-17.32 0-10.25 6.37-17.57 15.76-17.57 4.4 0 7.84 1.2 10.08 3.45v-2.85h9.05v23.35h-.1Zm-8.96-13c-1.55-1.65-4.48-3.02-7.58-3.02-5.6 0-9.13 3.87-9.13 9.65 0 5.68 3.62 9.56 9.13 9.56 2.93 0 5.77-1.38 7.58-3.02v-13.18Zm33.34-18.87v8.61h12.31v7.06h-12.31v13.7c0 4.05 1.63 5.77 4.56 5.77 2.41 0 5.17-1.2 6.8-2.41l2.85 6.98a23.73 23.73 0 0 1-12.5 3.36c-6.62 0-10.76-4.05-10.76-11.8v-15.5h-6.03v-7.25h6.03l1.12-8.6h7.93v.08Zm18.17 10.16h6.2v-2.32c0-6.55 3.45-11.98 11.63-11.98 3.53 0 6.9 1.04 8.7 1.9l-1.98 7.84a11.39 11.39 0 0 0-5.68-1.81c-2.59 0-3.62 1.55-3.62 4.13v2.24h10.16v7.07h-10.16v25.06h-9.05v-25.06h-6.2v-7.07Zm47.9-2.5c10.59 0 18.17 7.58 18.17 17.84 0 10.16-7.58 17.65-18.18 17.65-10.42 0-18.08-7.58-18.08-17.65 0-10.26 7.66-17.84 18.08-17.84Zm0 27.22c5.68 0 9.47-4.13 9.47-9.38 0-5.43-3.79-9.65-9.47-9.65-5.52 0-9.4 4.22-9.4 9.65 0 5.34 3.8 9.38 9.4 9.38Zm29.02-15.85c0-1.98-.43-3.44-2.32-3.44-1.38 0-2.93.6-3.45.95l-.34-7.07c.43-.43 3.79-1.46 7.32-1.46 3.87 0 6.37 1.55 7.32 5.08 1.64-3.19 4.05-5.08 8.44-5.08 3.19 0 5.6 1.12 6.03 1.9l-1.29 8.1c-.52-.7-3.1-1.73-6.2-1.73-4.3 0-6.03 3.7-6.55 7.66v18.35h-9.04v-23.26h.08Zm38.5-10.5v3.7c2.42-2.67 5.95-4.4 10.6-4.4 5.69 0 9.13 1.82 10.86 6.04 2.24-3.45 6.28-5.95 11.88-5.95 8.7 0 12.32 6.55 12.32 14.9v9.05c0 1.9.43 3.44 2.24 3.44 1.03 0 2.24-.43 3.45-1.03l.43 7.15a19.44 19.44 0 0 1-7.41 1.47c-5 0-7.75-2.59-7.75-8.88v-9.65c0-5-2.24-8.1-6.72-8.1-3.7 0-6.03 2.5-7.07 5.18v20.84H760v-18c0-4.91-2.15-8.01-6.63-8.01-3.8 0-6.2 2.58-7.24 5.25v20.68h-9.04V227.4h9.13Zm66.16-4.14v14.82h-4.9v-14.82h-6.04v-4.9h16.89v4.9h-5.95Zm28.34 2.84-5.94 7.24h-.86l-5.95-7.24v12.06h-4.9v-19.72h4.13l7.15 8.44 7.15-8.44h4.13v19.72h-4.9v-12.06Z"/></svg>