<svg xmlns="http://www.w3.org/2000/svg" width="60" height="60" fill="none" viewBox="0 0 15 14"><path fill="#FBDC00" d="M12.48 6.67H6.62v3.4h5.87v-3.4Z" class="ic-a-ocean_fcl_svg__ic_a_ocean_fcl"/><path fill="#000" d="M12.48 10.15H6.62a.09.09 0 0 1-.09-.08v-3.4a.09.09 0 0 1 .09-.08h5.87a.09.09 0 0 1 .08.09v3.39a.08.08 0 0 1-.09.08ZM6.7 9.98h5.7V6.76H6.7v3.23Z" class="ic-a-ocean_fcl_svg__ic_a_ocean_fcl"/><path fill="#000" d="M11.62 9.73a.08.08 0 0 1-.09-.08V7.28a.08.08 0 1 1 .17 0v2.37a.09.09 0 0 1-.08.09Zm-1.03 0a.08.08 0 0 1-.09-.08V7.28a.08.08 0 1 1 .17 0v2.37a.09.09 0 0 1-.09.09Zm-1.04 0a.08.08 0 0 1-.08-.08V7.28a.09.09 0 1 1 .17 0v2.37a.09.09 0 0 1-.09.09Zm-1.03 0a.09.09 0 0 1-.09-.08V7.28a.09.09 0 0 1 .17 0v2.37a.09.09 0 0 1-.08.09Zm-1.04 0a.08.08 0 0 1-.08-.08V7.28a.09.09 0 0 1 .17 0v2.37a.09.09 0 0 1-.09.09Z" class="ic-a-ocean_fcl_svg__ic_a_ocean_fcl"/><path fill="#FBDC00" d="M12.5 3.25H6.61v3.4h5.88v-3.4Z" class="ic-a-ocean_fcl_svg__ic_a_ocean_fcl"/><path fill="#000" d="M12.5 6.74H6.61a.09.09 0 0 1-.09-.09v-3.4a.09.09 0 0 1 .09-.08h5.88a.09.09 0 0 1 .08.08v3.4a.09.09 0 0 1-.08.09Zm-5.8-.17h5.71V3.34h-5.7v3.23Z" class="ic-a-ocean_fcl_svg__ic_a_ocean_fcl"/><path fill="#000" d="M11.63 6.32a.09.09 0 0 1-.09-.09V3.86a.09.09 0 1 1 .17 0v2.37a.09.09 0 0 1-.08.09Zm-1.04 0a.09.09 0 0 1-.08-.09V3.86a.09.09 0 1 1 .17 0v2.37a.09.09 0 0 1-.09.09Zm-1.03 0a.09.09 0 0 1-.09-.09V3.86a.09.09 0 0 1 .17 0v2.37a.09.09 0 0 1-.08.09Zm-1.04 0a.09.09 0 0 1-.08-.09V3.86a.09.09 0 0 1 .17 0v2.37a.09.09 0 0 1-.09.09Zm-1.03 0a.09.09 0 0 1-.09-.09V3.86a.09.09 0 1 1 .17 0v2.37a.09.09 0 0 1-.09.09Z" class="ic-a-ocean_fcl_svg__ic_a_ocean_fcl"/><path fill="#fff" d="M5.55 6.83V5.26h-3.2v1.57" class="ic-a-ocean_fcl_svg__ic_a_ocean_fcl"/><path fill="#000" d="M5.63 6.83h-.15v-1.5H2.43v1.5h-.15V5.2h3.35v1.64Z" class="ic-a-ocean_fcl_svg__ic_a_ocean_fcl"/><path fill="#fff" d="M1.1 7.4 4 6.1l2.75 1.3-1.33 3.04H2.73L1.11 7.4Z" class="ic-a-ocean_fcl_svg__ic_a_ocean_fcl"/><path fill="#000" d="M5.47 10.52H2.68L1 7.37l3-1.35 2.85 1.35-1.38 3.15Zm-2.7-.15h2.6l1.28-2.93L4 6.19 1.2 7.44l1.56 2.93Z" class="ic-a-ocean_fcl_svg__ic_a_ocean_fcl"/><path fill="#fff" d="M5 4.42H2.92v.84H5v-.84Z" class="ic-a-ocean_fcl_svg__ic_a_ocean_fcl"/><path fill="#000" d="M5.07 5.34H2.84v-1h2.23v1ZM3 5.19h1.92v-.7H3v.7Z" class="ic-a-ocean_fcl_svg__ic_a_ocean_fcl"/><path fill="#fff" d="M4.33 3.66h-.75v.76h.75v-.76Z" class="ic-a-ocean_fcl_svg__ic_a_ocean_fcl"/><path fill="#000" d="M4.41 4.5h-.9v-.91h.9v.9Zm-.76-.16h.6v-.6h-.6v.6Zm.4 1.8H3.9v4.24h.15V6.14Z" class="ic-a-ocean_fcl_svg__ic_a_ocean_fcl"/><path fill="#fff" d="M4.94 8.3a.37.37 0 1 0 0-.75.37.37 0 0 0 0 .74Z" class="ic-a-ocean_fcl_svg__ic_a_ocean_fcl"/><path fill="#000" d="M4.94 8.37a.45.45 0 1 1 0-.9.45.45 0 0 1 0 .9Zm0-.74a.3.3 0 1 0 0 .59.3.3 0 0 0 0-.6Z" class="ic-a-ocean_fcl_svg__ic_a_ocean_fcl"/><path fill="#fff" d="M2.92 8.3a.37.37 0 1 0 0-.75.37.37 0 0 0 0 .74Z" class="ic-a-ocean_fcl_svg__ic_a_ocean_fcl"/><path fill="#000" d="M2.92 8.37a.45.45 0 1 1 0-.9.45.45 0 0 1 0 .9Zm0-.74a.3.3 0 1 0 0 .59.3.3 0 0 0 0-.6Z" class="ic-a-ocean_fcl_svg__ic_a_ocean_fcl"/><path fill="#fff" d="M12.97 9.65v1.15H2.17V9.66c.63 0 1.23-1.17 1.8-1.17.64 0 1.24 1.17 1.82 1.17.62 0 1.22-1.17 1.82-1.17s1.2 1.17 1.81 1.17c.58 0 1.18-1.17 1.81-1.17.56 0 1.13 1.07 1.74 1.16Z" class="ic-a-ocean_fcl_svg__ic_a_ocean_fcl"/><path fill="#000" d="M13.04 10.88H2.1v-1.3h.07c.3 0 .6-.3.9-.58.32-.3.6-.59.92-.59.35 0 .68.32 1 .63.27.27.56.54.81.54.28 0 .58-.29.87-.57.3-.3.62-.6.95-.6.32 0 .64.3.94.6.3.28.6.57.87.57.26 0 .54-.27.82-.54.32-.31.64-.63 1-.63.3 0 .6.29.9.59.28.26.56.54.84.58h.06v1.3Zm-10.8-.15H12.9V9.7c-.3-.07-.58-.34-.85-.6-.27-.27-.56-.54-.8-.54-.3 0-.6.29-.9.58-.3.3-.6.58-.92.58-.34 0-.66-.3-.97-.6-.28-.28-.58-.57-.84-.57s-.56.29-.84.56c-.32.3-.64.61-.98.61-.31 0-.6-.28-.92-.59-.3-.28-.6-.58-.89-.58-.25 0-.53.28-.8.55-.3.28-.61.58-.94.62v1Z" class="ic-a-ocean_fcl_svg__ic_a_ocean_fcl"/></svg>