<svg xmlns="http://www.w3.org/2000/svg" height="800" width="1200" viewBox="-50.377965 -20.4638 436.60903 122.7828"><path d="M94.5305 25.3641c-.3574-.7338-.4262-1.3606-.2007-1.8804.2236-.5179.7548-.7778 1.5976-.7778h6.8738c.4663 0 .8733.1242 1.223.3765.3498.2503.5944.6077.7377 1.074.3057.9478.6402 2.0141 1.007 3.1951.367 1.181.753 2.3945 1.1562 3.6385.4013 1.246.8007 2.4805 1.1944 3.7074.3937 1.2249.7567 2.3543 1.0873 3.3824.3326 1.03.6269 1.9263.8867 2.6869.26.7605.453 1.3013.5772 1.6243l5.6928-18.2346c.2331-.5733.4988-.9575.793-1.1562.2963-.1968.711-.2943 1.2498-.2943h7.063c.518 0 .9116.063 1.181.1873.2676.1261.4472.2962.537.5102.0898.216.107.4625.0535.7396-.0535.277-.1433.5675-.2675.8714L114.1888 55.657c-.1968.323-.43.5962-.6975.8198-.2695.2236-.6727.3363-1.2097.3363h-3.1951c-.7167 0-1.2212-.1032-1.5174-.3096-.2962-.2063-.514-.4873-.6573-.8465zm61.2249 27.3663c-1.5765 1.4504-3.348 2.5837-5.3182 3.3977-1.9684.8141-4.0552 1.2212-6.2566 1.2212-2.4537 0-4.7718-.4472-6.956-1.3416-2.1843-.8962-4.099-2.1364-5.7464-3.7206-1.6472-1.5843-2.9543-3.4513-3.9213-5.5992-.967-2.148-1.4504-4.4851-1.4504-7.0095 0-1.5747.193-3.1016.577-4.5788.3842-1.4772.9307-2.8607 1.6378-4.1487.707-1.29 1.567-2.4748 2.5798-3.5583 1.011-1.0835 2.1422-2.0103 3.3959-2.7805 1.2536-.7701 2.6142-1.3701 4.0818-1.8001 1.4677-.428 3.0175-.644 4.6475-.644 1.4849 0 2.9277.1968 4.3227.5905 1.397.3955 2.7079.9497 3.9347 1.6664a17.0686 17.0686 0 013.371 2.5779c1.0205 1.0032 1.8976 2.0982 2.6314 3.2888a15.867 15.867 0 011.7046 3.8143c.4033 1.351.6058 2.7442.6058 4.1755 0 .9326-.0134 1.6932-.0401 2.2837-.0287.5905-.1663 1.0606-.4166 1.4103-.2523.3478-.6689.5905-1.2498.7242-.581.1338-1.437.2007-2.5645.2007H135.99c.1777 1.1466.5408 2.1059 1.0873 2.8741.5447.7701 1.1772 1.3836 1.8938 1.8403.7147.4567 1.4753.7835 2.2817.9803.8065.1969 1.567.2943 2.2837.2943.644 0 1.3052-.0669 1.9874-.2006a14.2236 14.2236 0 001.974-.537c.6345-.2236 1.2174-.4835 1.7448-.7797.5274-.2943.9536-.6039 1.2765-.9268.2848-.2313.5313-.4052.7377-.5217.2064-.1166.4261-.1758.6573-.1758.2332 0 .4702.0802.7128.2427.2408.1605.5141.3936.818.6975l2.8473 3.2219c.1969.2331.323.4433.3765.6325.0535.1873.0802.3803.0802.5771 0 .3574-.0993.667-.2962.9269a3.3368 3.3368 0 01-.6975.6841m-12.9182-22.37c-.6976 0-1.374.1376-2.0276.4147-.6536.279-1.267.6497-1.8384 1.116a9.5546 9.5546 0 00-1.546 1.5842c-.4548.5905-.8274 1.1905-1.114 1.7982h13.7246c-.3764-.6975-.7835-1.3415-1.223-1.932a8.2576 8.2576 0 00-1.504-1.5593c-.5637-.4472-1.2077-.795-1.9339-1.0473-.7242-.2503-1.5708-.3745-2.5377-.3745M188.3907 52.65a95.192 95.192 0 01-1.5976 1.5574c-.5828.5542-1.223 1.074-1.9205 1.5575a10.8904 10.8904 0 01-2.2569 1.1962c-.8045.3115-1.674.4682-2.6047.4682-2.4346 0-4.678-.4548-6.7266-1.3682-2.0505-.9135-3.8144-2.1633-5.2916-3.7475-1.4772-1.5842-2.6314-3.4512-3.4646-5.5992-.8313-2.148-1.2479-4.4583-1.2479-6.9292 0-2.4881.4166-4.8023 1.248-6.9407.8331-2.1403 1.9873-4.0016 3.4645-5.5878 1.4772-1.5842 3.241-2.8282 5.2916-3.7321 2.0485-.904 4.292-1.3568 6.7266-1.3568.9842 0 1.8843.1433 2.7003.43.814.2866 1.5574.6535 2.2282 1.1007.6707.449 1.2899.9536 1.8536 1.5173.5638.5637 1.097 1.1141 1.5976 1.653V14.5945c0-.5733.174-1.0548.5236-1.4504.3497-.3937.8733-.5905 1.5709-.5905h6.0425c.2331 0 .4797.0497.7396.1471.258.0994.4968.239.7108.4166a2.178 2.178 0 01.5237.646c.1337.2503.2006.5274.2006.8312v40.1499c0 1.3797-.7243 2.0677-2.1747 2.0677h-5.2629c-.3592 0-.6363-.044-.8331-.1338a1.3216 1.3216 0 01-.497-.3898c-.1337-.1701-.254-.3841-.363-.644-.107-.26-.2408-.56-.4032-.9001zM172.948 39.7851c0 1.1829.1835 2.2874.5504 3.3175.3669 1.03.8905 1.9205 1.5708 2.6715.6803.753 1.5001 1.3473 2.4576 1.7868.9574.4376 2.018.6574 3.1837.6574 1.1446 0 2.2243-.2064 3.2353-.6173 1.0109-.4108 1.8937-.9803 2.6448-1.7046.7529-.7262 1.3568-1.5804 1.8135-2.5664.4567-.9842.7109-2.041.7644-3.1685v-.3764c0-1.1447-.214-2.2378-.644-3.2755-.43-1.0395-1.0243-1.951-1.7849-2.7403-.7625-.7873-1.6568-1.4084-2.6868-1.8651-1.03-.4568-2.1442-.686-3.3423-.686-1.1657 0-2.2263.2292-3.1837.686-.9575.4567-1.7773 1.0778-2.4576 1.865-.6803.7893-1.2039 1.7009-1.5708 2.7404-.367 1.0377-.5504 2.1308-.5504 3.2755m65.885 15.0401c0 .3039-.0535.5963-.1606.8734-.107.277-.2866.4968-.537.6573-.1987.1969-.43.323-.6994.3765-.2675.0535-.5006.0803-.6975.0803h-5.2896c-.3765 0-.6822-.0497-.9134-.1472-.2332-.0994-.4224-.237-.5638-.4166-.1452-.1796-.2656-.3994-.363-.6574a34.1685 34.1685 0 01-.3097-.8465l-.7796-2.0142c-.4816.4835-1.011.9975-1.5823 1.544-.5733.5466-1.2059 1.0511-1.8938 1.5174-.6899.4663-1.437.8542-2.2435 1.1676-.8045.3134-1.6645.4701-2.578.4701-1.63 0-3.1913-.2064-4.6857-.6172-1.4963-.411-2.8913-.9976-4.1908-1.76-1.2975-.7606-2.4747-1.6722-3.5315-2.7385-1.0549-1.0644-1.9645-2.2512-2.725-3.5583-.7606-1.307-1.3473-2.7174-1.76-4.229-.411-1.5135-.6173-3.0939-.6173-4.7411 0-2.4881.4567-4.8024 1.3702-6.9427.9134-2.1384 2.1575-4.0016 3.7321-5.5858 1.5766-1.5842 3.4283-2.8282 5.561-3.7321 2.1288-.904 4.4125-1.3568 6.847-1.3568 1.1103 0 2.1308.1662 3.0615.4968.9306.3306 1.7772.7663 2.5377 1.3033.7606.537 1.4505 1.1447 2.0677 1.825.6173.6803 1.1696 1.3702 1.653 2.0677l1.0473-3.2487c.1777-.4472.3248-.8102.4433-1.0873.1147-.2771.2408-.4835.3746-.6173.1337-.1357.3-.2255.4968-.2694.1969-.044.474-.067.8332-.067h4.0016c.1969 0 .43.0268.6975.0803.2695.0535.5007.1797.6995.3765.2503.1968.43.4204.537.6708.107.2503.1605.537.1605.86zm-26.4538-15.0394c0 1.1829.1834 2.2874.5503 3.3174.367 1.0281.8905 1.9206 1.5728 2.6716.6803.753 1.4982 1.3472 2.4575 1.7868.9574.4376 2.018.6573 3.1818.6573 1.1982 0 2.3142-.2197 3.3442-.6573 1.0281-.4396 1.9244-1.0339 2.685-1.7868.7605-.751 1.3568-1.6435 1.7848-2.6716.43-1.03.646-2.1345.646-3.3174 0-1.1447-.216-2.2378-.646-3.2755-.428-1.0396-1.0243-1.953-1.7848-2.7403-.7606-.7874-1.6569-1.4103-2.685-1.867-1.03-.4549-2.146-.6842-3.3442-.6842-1.1638 0-2.2244.2293-3.1818.6841-.9593.4568-1.7772 1.0797-2.4575 1.867-.6823.7874-1.2059 1.7008-1.5728 2.7404-.3669 1.0377-.5503 2.1308-.5503 3.2755m31.4428-16.5996c.2331-.1969.4796-.323.7395-.3765.258-.0535.5045-.0803.7377-.0803h4.055c.323 0 .6001.0593.8333.174.2312.1165.43.2732.5905.47.1605.1969.2904.4204.3898.6708.0975.2484.1911.5083.281.7758l.8331 3.4284c.2695-.5542.6574-1.183 1.1676-1.8881.5103-.7052 1.16-1.3664 1.9473-1.9817.7874-.6172 1.7237-1.1351 2.8073-1.5536 1.0816-.4204 2.339-.6287 3.7723-.6287 2.0409 0 3.8945.3917 5.559 1.1771 1.6664.7854 3.0844 1.8575 4.2577 3.2143 1.1714 1.3568 2.081 2.943 2.725 4.7565.646 1.8154.967 3.7512.967 5.8094v17.5906c0 .6803-.1471 1.1963-.4433 1.544-.2943.3498-.7644.5237-1.4103.5237h-6.2031c-.7701 0-1.2976-.128-1.5842-.388-.2867-.2598-.43-.7662-.43-1.5173V37.423c0-.7701-.1739-1.5001-.5236-2.19a6.4055 6.4055 0 00-1.3835-1.825c-.5733-.5274-1.2212-.944-1.9473-1.2498-.7243-.3038-1.462-.4567-2.2149-.4567-.644 0-1.3014.1452-1.974.43-.6708.2866-1.29.686-1.8537 1.1963-.5637.5102-1.0376 1.1102-1.4218 1.7982-.386.6899-.6057 1.437-.6592 2.2435v17.455c0 .3057-.0574.6096-.174.9134-.1165.3058-.2904.537-.5236.6994-.2331.1434-.4529.2408-.6573.2943-.2064.0535-.4434.0803-.7128.0803h-6.0693c-.7702 0-1.3243-.1873-1.6645-.5637-.3402-.3746-.5102-.8772-.5102-1.504V24.713c0-.3401.0745-.6516.2274-.9383.1528-.2847.363-.5083.6306-.6688zm37.8996-5.7982c0-.5542.1835-.9707.5504-1.2498.3669-.277.8905-.5408 1.5708-.7911l6.098-2.1212a1.3374 1.3374 0 01.2541-.0268h.2275c.663 0 1.1064.1911 1.33.5772.2236.384.3363.8905.3363 1.5173l-.0267 8.46h4.485c.5715 0 1.0377.17 1.395.5102.3594.3401.537.8504.537 1.5307v5.1826c0 .7529-.1776 1.3033-.537 1.651-.3573.3498-.8235.5237-1.395.5237h-4.485l.0267 21.5922c0 .6803-.1987 1.1963-.5924 1.5441-.3936.3497-.9383.5236-1.6377.5236h-6.0693c-1.3778 0-2.0677-.688-2.0677-2.0677l-.0267-21.5922h-1.9607c-1.3797 0-2.0677-.7243-2.0677-2.1747v-5.1826c0-1.3607.688-2.041 2.0677-2.041h1.9607zm54.1314 37.4372c0 .3039-.0535.5963-.1605.8734-.107.277-.2866.4968-.537.6573-.1987.1969-.43.323-.6994.3765-.2675.0535-.5007.0803-.6975.0803h-5.2915c-.3746 0-.6803-.0497-.9116-.1472-.2331-.0994-.4223-.237-.5656-.4166-.1433-.1796-.2637-.3994-.3612-.6574a34.1685 34.1685 0 01-.3096-.8465l-.7797-2.0142c-.4815.4835-1.0109.9975-1.5842 1.544-.5713.5466-1.2039 1.0511-1.8918 1.5174-.69.4663-1.4371.8542-2.2435 1.1676-.8046.3134-1.6645.4701-2.578.4701-1.63 0-3.1913-.2064-4.6857-.6172-1.4963-.411-2.8913-.9976-4.1908-1.76-1.2976-.7606-2.4747-1.6722-3.5315-2.7385-1.0549-1.0644-1.9645-2.2512-2.725-3.5583-.7606-1.307-1.3473-2.7174-1.76-4.229-.411-1.5135-.6173-3.0939-.6173-4.7411 0-2.4881.4567-4.8024 1.3701-6.9427.9135-2.1384 2.1575-4.0016 3.7322-5.5858 1.5766-1.5842 3.4283-2.8282 5.561-3.7321 2.1288-.904 4.4124-1.3568 6.847-1.3568 1.1103 0 2.1308.1662 3.0614.4968.9307.3306 1.7773.7663 2.5378 1.3033.7606.537 1.4505 1.1447 2.0677 1.825.6173.6803 1.1695 1.3702 1.653 2.0677l1.0472-3.2487c.1778-.4472.325-.8102.4434-1.0873.1147-.2771.2408-.4835.3746-.6173.1337-.1357.3-.2255.4968-.2694.1968-.044.474-.067.8332-.067h4.0016c.1968 0 .43.0268.6975.0803.2695.0535.5007.1797.6994.3765.2504.1968.43.4204.537.6708.107.2503.1605.537.1605.86zm-26.4538-15.0394c0 1.1829.1835 2.2874.5504 3.3174.367 1.0281.8905 1.9206 1.5728 2.6716.6803.753 1.4982 1.3472 2.4575 1.7868.9574.4376 2.018.6573 3.1818.6573 1.1982 0 2.3142-.2197 3.3442-.6573 1.0281-.4396 1.9244-1.0339 2.685-1.7868.7605-.751 1.3567-1.6435 1.7848-2.6716.43-1.03.646-2.1345.646-3.3174 0-1.1447-.216-2.2378-.646-3.2755-.428-1.0396-1.0243-1.953-1.7849-2.7403-.7605-.7874-1.6568-1.4103-2.6849-1.867-1.03-.4549-2.146-.6842-3.3442-.6842-1.1638 0-2.2244.2293-3.1818.6841-.9593.4568-1.7772 1.0797-2.4575 1.867-.6823.7874-1.2059 1.7008-1.5728 2.7404-.3669 1.0377-.5504 2.1308-.5504 3.2755M38.5788 21.4945c-.7663-5.817-6.635-11.2251-17.067-14.3075-.902-.2676-3.0232-.73-4.8176.6383-.879.6707-2.0658 1.588-2.8951 2.3142-1.9684 1.7294.6 2.425 2.0008 2.6639 9.8454 1.6797 19.8857 5.7368 21.5616 13.3368.7033 3.1913.9364 18.571 39.2575 3.7914 1.0892-.4205 3.4894-1.2059 2.6066-3.5315-.2963-.7778-.6058-1.548-.9498-2.3009-.8963-1.9645-2.876-1.3434-3.8239-.9478-14.8503 6.2069-34.2392 10.7588-35.873-1.6569" fill="#26588d"/><path d="M38.5788 33.1894c-.9765-7.4376-10.302-14.212-26.8493-16.3026-1.2078-.153-3.7761-.4052-5.0737 1.5364-.4892.732-.9746 1.4715-1.376 2.2588-1.158 2.2779.9441 2.8741 2.2531 2.9314 11.6188.518 27.6673 4.4316 29.8286 14.2216.7148 3.2468.944 19.0812 41.1818 3.0385 1.0625-.4223 3.329-1.3568 3.1073-3.9577-.0803-.9497-.193-1.89-.363-2.8148-.2963-1.5957-2.6545-1.0874-3.845-.5504-15.0892 6.7993-37.1171 12.9087-38.8638-.3612" fill="#26588d"/><path d="M38.5788 45.0895c-1.1064-8.4083-12.8705-15.9644-33.6716-16.8702-.9516-.042-2.855-.105-3.4799 1.8212-.344 1.0568-.5694 2.1594-.749 3.2697-.388 2.4136 1.6587 2.1938 2.811 2.1613 11.5156-.3115 31.4453 3.2697 33.8722 14.2636.709 3.2162.9364 18.7984 40.1021 3.4685.9135-.3574 2.813-1.0071 3.3213-3.3557.2886-1.3339.579-2.8417.6708-3.4436.3745-2.4786-1.5556-2.0906-2.5378-1.632-15.0834 7.0515-38.5332 14.0285-40.339.3172" fill="#26588d"/><path d="M38.5788 56.9898C37.4571 48.4744 25.4102 40.8381 4.118 40.0909c-1.3358-.0477-4.1984-.4013-4.1163 1.6167.0535 1.2651.1204 2.5187.2542 3.7551.1968 1.8116 2.7499 1.9034 4.1621 1.89 11.6246-.0994 30.5816 3.5793 32.9435 14.2827.6574 2.983.9001 16.6103 32.2002 6.3254.9058-.2962 3.0537-1.2613 4.3207-2.9009 1.353-1.7505 2.4748-3.6748 3.4971-5.6565 1.0568-2.0505-.6593-1.7276-1.63-1.3071-14.9917 6.4763-35.489 11.6742-37.1707-1.1065m-1.2178-42.547c.6841 3.0996.923 17.6767 35.9686 5.022.665-.2388 1.7294-1.3242.858-2.4746-.749-.99-1.4944-1.9798-2.3008-2.92-.7816-.9116-2.4939-.6364-3.22-.3784-13.6674 4.8482-28.6591 6.958-30.0885-3.8946-.3306-2.5206-1.6244-4.961-3.8258-7.17-.6479-.6498-2.4537-1.9148-4.4278-1.351-.9899.2827-1.9702.579-2.9372.9057-1.7352.5867-.298 2.0983.8886 2.6697 4.6342 2.2358 8.1523 5.3641 9.0849 9.5912" fill="#75c044"/><path d="M65.405 8.0284c-1.3206-.988-2.6793-1.9358-4.1374-2.7232-.9899-.535-3.1034-.4968-3.8678-.3478C49.343 6.515 42.3125 6.0257 39.6295 1.2042c-.2178-.3936-.5427-1.286-1.651-1.1981-.581.0458-1.4085.2331-1.0626 1.0701.195.4701.3325.9631.4453 1.4696.623 2.8168 1.353 16.7039 27.3252 7.8063 2.0543-.7032 1.3816-1.8269.7185-2.3237M43.1226 81.8552s12.88-.9058 23.2605-7.8771c0 0 .2638-3.0729-8.5727-.8905-8.8364 2.1823-14.4757 8.1828-14.6878 8.7676M30.117 74.4973c-8.3052-8.8899-20.419-15.3949-17.3002-15.2248 0 0 18.9952 4.2978 28.1966 22.5152.1051-.0038.1625-.0057.1625-.0057s.0134-7.3057-2.6334-13.18c-6.719-14.9058-33.832-16.3906-33.832-16.3906-2.5302-.1548-1.9856 2.3161-1.9856 2.3161s1.158 9.7632 13.568 18.8653c6.9464 5.0928 13.912 7.1127 18.699 7.9038-.6249-1.1905-2.2186-3.9557-4.875-6.7993" fill="#75c044"/></svg>